<?xml version="1.0" encoding="UTF-8" standalone="no"?>
<!-- Created with Inkscape (http://www.inkscape.org/) -->

<svg
   version="1.1"
   id="svg1"
   width="743"
   height="501"
   viewBox="0 0 743 501"
   sodipodi:docname="AI-Cities LOGO_NOURL_NOTITLE.svg"
   inkscape:version="1.3.2 (091e20e, 2023-11-25, custom)"
   xmlns:inkscape="http://www.inkscape.org/namespaces/inkscape"
   xmlns:sodipodi="http://sodipodi.sourceforge.net/DTD/sodipodi-0.dtd"
   xmlns="http://www.w3.org/2000/svg"
   xmlns:svg="http://www.w3.org/2000/svg">
  <sodipodi:namedview
     id="namedview1"
     pagecolor="#ffffff"
     bordercolor="#000000"
     borderopacity="0.25"
     inkscape:showpageshadow="2"
     inkscape:pageopacity="0.0"
     inkscape:pagecheckerboard="0"
     inkscape:deskcolor="#d1d1d1"
     inkscape:zoom="1.2193809"
     inkscape:cx="371.08996"
     inkscape:cy="250.12693"
     inkscape:window-width="1920"
     inkscape:window-height="1010"
     inkscape:window-x="-6"
     inkscape:window-y="-6"
     inkscape:window-maximized="1"
     inkscape:current-layer="g1" />
  <defs
     id="defs1" />
  <g
     inkscape:groupmode="layer"
     inkscape:label="Image"
     id="g1">
    <path
       style="fill:#ffffff"
       d="M 3.4165997,500.08333 C 3.1874698,499.85417 3,464.19167 3,420.83333 c 0,-74.37619 0.098943,-78.83875 1.75,-78.92915 2.1257108,-0.11639 18.870635,-0.54324 29.5,-0.75198 L 42,341 V 201.19649 61.392984 l 29.75,0.02232 29.75,0.02232 0.5,-29.829526 0.5,-29.8295263 66.5,0.00747 c 36.575,0.00411 67.7375,0.053929 69.25,0.1107127 L 241,2 v 29.750439 l 0,29.750439 26.75,-0.246345 c 14.7125,-0.13549 28.2125,-0.0028 30,0.294874 L 301,62.090626 V 141.54531 221 l 5.59272,0 c 5.35459,0 5.84368,-0.22711 11.48693,-5.33396 7.09517,-6.42076 13.55998,-10.07666 21.45531,-12.13313 16.08294,-4.18907 33.20997,0.35914 45.50151,12.08328 5.46351,5.21132 5.82549,5.38381 11.29796,5.38381 l 5.6536,0 0.25598,-79.75 L 402.5,61.5 491.75,61.279726 581,61.059453 V 151.02973 241 h 11 11 v -30 -30 l 19.81855,0 19.81856,0 4.37861,-44.15851 c 2.40823,-24.28718 4.47792,-43.749681 4.5993,-43.25 0.12138,0.49968 2.14818,20.37101 4.50399,44.15851 L 660.4023,181 680.70115,181 701,181 v 30 30 h 20 20 V 370.5 500 l -330.75,0.0829 c -181.9125,0.0456 -347.77503,0.15811 -368.5834,0.25 -20.808371,0.0919 -38.0208705,-0.0204 -38.2500003,-0.2496 z M 122.76466,451.25 123.02933,421 H 92.014663 61 v 30.51445 30.51445 L 91.75,481.76445 122.5,481.5 Z m 159,0 0.26467,-30.25 H 251.51466 221 v 30.51466 30.51467 L 251.25,481.76466 281.5,481.5 Z M 382.5,411 V 340.5 L 351.75,340.23555 321,339.9711 V 411 482.0289 L 351.75,481.76445 382.5,481.5 Z m 99.26466,40.25 0.26467,-30.25 H 451.51466 421 v 30.51466 30.51467 L 451.25,481.76466 481.5,481.5 Z m 80,0 0.26467,-30.25 H 531.51466 501 v 30.51466 30.51467 L 531.25,481.76466 561.5,481.5 Z m 119.65355,30.14301 C 682.83582,480.84902 683,474.67324 683,421.89301 V 363 h 18.41821 c 10.13002,0 19.13002,-0.27314 20,-0.60699 1.39438,-0.53507 1.58179,-4.20804 1.58179,-31 V 301 h -20 -20 v -20 -20 h -31 -31 v 20 20 h -20 -20 v 31 31 h 20 20 v 59.5 59.5 h 29.41821 c 16.18002,0 30.13002,-0.27314 31,-0.60699 z M 122.5,371.5 v -31 L 91.75,340.23555 61,339.9711 V 371.5 403.0289 L 91.75,402.76445 122.5,402.5 Z m 159,0 v -31 L 251.25,340.23534 221,339.97067 V 371.5 403.02933 L 251.25,402.76466 281.5,402.5 Z m 200,0 v -31 L 451.25,340.23534 421,339.97067 V 371.5 403.02933 L 451.25,402.76466 481.5,402.5 Z M 123,290.97211 V 261 H 92 61 l -5.31e-4,30.25 -5.32e-4,30.25 31.000532,-0.27789 L 123,320.94421 Z M 202,291 V 261 H 171.5 141 v 30 30 h 30.5 30.5 z m 80,0 V 261 H 251.5 221 v 30 30 h 30.5 30.5 z m 101,0 v -30 h -31 -31 v 30 30 h 31 31 z m 99,0 V 261 H 451.5 421 v 30 30 H 451.5 482 Z M 121.75,241.13254 C 122.71928,241.02977 123,234.26264 123,211 V 181 H 92 61 v 30.25871 30.25871 l 29.75,-0.12616 c 16.3625,-0.0694 30.3125,-0.18582 31,-0.25872 z M 282,211 V 181 H 251.5 221 v 30 30 h 30.5 30.5 z m 200,0 V 181 H 451.5 421 v 30 30 H 451.5 482 Z M 121.75,162.13254 C 122.71978,162.02971 123,155.16264 123,131.5 V 101 H 92 61 v 30.75871 30.75871 l 29.75,-0.12616 c 16.3625,-0.0694 30.3125,-0.18582 31,-0.25872 z M 201.76445,131.75 202.0289,101 H 171.51445 141 v 30.33333 c 0,16.68334 0.18767,30.52101 0.41705,30.75038 0.22937,0.22938 13.84187,0.41688 30.25,0.41667 L 201.5,162.5 Z m 80,-0.005 L 282.0289,101 H 251.51445 221 v 30.42668 c 0,28.17291 0.12963,30.45354 1.75,30.78946 0.9625,0.19953 14.575,0.34274 30.25,0.31824 l 28.5,-0.0445 z m 200,0.005 L 482.0289,101 H 451.51445 421 v 31.01466 31.01467 L 451.25,162.76466 481.5,162.5 Z m 80,0 L 562.0289,101 H 531.51445 501 v 31.01466 31.01467 L 531.25,162.76466 561.5,162.5 Z"
       id="path1" />
  </g>
</svg>
